HIERARCHY
ROOT Hips
{
	OFFSET -3.958830 18.904000 13.208200
	CHANNELS 6 Xposition Yposition Zposition Zrotation Yrotation Xrotation 
	JOINT LHipJoint
	{
		OFFSET 0.000000 0.000000 0.000000
		CHANNELS 3 Zrotation Yrotation Xrotation
		JOINT LeftUpLeg
		{
			OFFSET 1.800000 -1.400000 0.085000
			CHANNELS 3 Zrotation Yrotation Xrotation
			JOINT LeftLeg
			{
				OFFSET 2.215000 -6.000000 0.000000
				CHANNELS 3 Zrotation Yrotation Xrotation
				JOINT LeftFoot
				{
					OFFSET 2.500000 -6.900000 0.000000
					CHANNELS 3 Zrotation Yrotation Xrotation
					JOINT LeftToeBase
					{
						OFFSET 0.200000 -0.500000 1.950000
						CHANNELS 3 Zrotation Yrotation Xrotation
						End Site
						{
							OFFSET 0.000000 0.000000 0.000000
						}
					}
				}
			}
		}
	}
	JOINT RHipJoint
	{
		OFFSET 0.000000 0.000000 0.000000
		CHANNELS 3 Zrotation Yrotation Xrotation
		JOINT RightUpLeg
		{
			OFFSET -1.800000 -1.400000 0.085000
			CHANNELS 3 Zrotation Yrotation Xrotation
			JOINT RightLeg
			{
				OFFSET -2.215000 -6.000000 0.000000
				CHANNELS 3 Zrotation Yrotation Xrotation
				JOINT RightFoot
				{
					OFFSET -2.500000 -6.900000 0.000000
					CHANNELS 3 Zrotation Yrotation Xrotation
					JOINT RightToeBase
					{
						OFFSET -0.200000 -0.500000 1.950000
						CHANNELS 3 Zrotation Yrotation Xrotation
						End Site
						{
							OFFSET 0.000000 0.000000 0.000000
						}
					}
				}
			}
		}
	}
	JOINT LowerBack
	{
		OFFSET 0.000000 0.000000 0.000000
		CHANNELS 3 Zrotation Yrotation Xrotation
		JOINT Spine
		{
			OFFSET -0.087000 1.940000 -0.288900
			CHANNELS 3 Zrotation Yrotation Xrotation
			JOINT Spine1
			{
				OFFSET 0.000000 1.950000 0.060000
				CHANNELS 3 Zrotation Yrotation Xrotation
				JOINT Neck
				{
					OFFSET 0.000000 0.000000 0.000000
					CHANNELS 3 Zrotation Yrotation Xrotation
					JOINT Neck1
					{
						OFFSET 0.000000 1.600000 0.340000
						CHANNELS 3 Zrotation Yrotation Xrotation
						JOINT Head
						{
							OFFSET 0.000000 1.667000 -0.240000
							CHANNELS 3 Zrotation Yrotation Xrotation
							End Site
							{
								OFFSET 0.000000 0.000000 0.000000
							}
						}
					}
				}
				JOINT LeftShoulder
				{
					OFFSET 0.000000 0.000000 0.000000
					CHANNELS 3 Zrotation Yrotation Xrotation
					JOINT LeftArm
					{
						OFFSET 2.700000 1.550000 -0.730000
						CHANNELS 3 Zrotation Yrotation Xrotation
						JOINT LeftForeArm
						{
							OFFSET 5.450000 0.000000 0.000000
							CHANNELS 3 Zrotation Yrotation Xrotation
							JOINT LeftHand
							{
								OFFSET 3.450000 0.000000 0.000000
								CHANNELS 3 Zrotation Yrotation Xrotation
								JOINT LeftHandIndex1
								{
									OFFSET 0.750000 0.000000 0.000000
									CHANNELS 3 Zrotation Yrotation Xrotation
									End Site
									{
										OFFSET 0.000000 0.000000 0.000000
									}
								}
							}
						}
					}
				}
				JOINT RightShoulder
				{
					OFFSET 0.000000 0.000000 0.000000
					CHANNELS 3 Zrotation Yrotation Xrotation
					JOINT RightArm
					{
						OFFSET -2.700000 1.550000 -0.730000
						CHANNELS 3 Zrotation Yrotation Xrotation
						JOINT RightForeArm
						{
							OFFSET -5.450000 0.000000 0.000000
							CHANNELS 3 Zrotation Yrotation Xrotation
							JOINT RightHand
							{
								OFFSET -3.450000 0.000000 0.000000
								CHANNELS 3 Zrotation Yrotation Xrotation
								JOINT RightHandIndex1
								{
									OFFSET -0.750000 0.000000 0.000000
									CHANNELS 3 Zrotation Yrotation Xrotation
									End Site
									{
										OFFSET 0.000000 0.000000 0.000000
									}
								}
							}
						}
					}
				}
			}
		}
	}
}
MOTION
Frames: 11
Frame Time: 0.016667
0.137190 16.961490 -4.403050 -2.599484 -4.419681 3.361156 -14.902946 12.942064 2.689910 7.681325 -1.825731 -22.448124 -2.936892 6.847667 24.582868 -0.297214 4.424038 2.895856 0.309790 0.254320 0.240660 18.397000 -11.541135 2.819586 -12.434274 1.131163 -12.877989 9.797817 -5.242644 10.239133 -0.116335 -3.725574 3.023393 0.266170 0.126160 0.137200 -4.100370 0.234888 -7.104423 7.879093 1.922024 7.595863 -4.947323 2.443034 8.931862 4.065401 -0.729728 -7.162416 -1.280529 3.887974 37.872478 -4.245740 3.610750 -4.967040 -27.129373 -10.484036 3.839365 -48.552359 -9.049924 -0.356662 -17.747886 -19.043631 1.433425 -3.882806 3.069822 0.076680 0.179160 -0.037490 0.084230 19.596386 14.090990 2.773036 48.544530 30.095610 4.535152 19.579988 55.982484 8.523544 2.122102 -1.649255 -0.074380 0.121640 -0.048380 -0.098490 
0.130060 16.952420 -4.410690 -2.649346 -4.689983 3.314471 -14.909278 12.944609 2.711344 7.821433 -1.835518 -22.785570 -2.892335 6.985626 25.254387 -0.291785 4.517452 2.850867 0.321670 0.268330 0.254380 18.389073 -11.523782 2.827725 -12.454536 1.169037 -12.932871 10.039691 -5.292680 10.323436 -0.125494 -3.727458 3.016877 0.273240 0.111700 0.135360 -4.075992 0.205634 -7.137994 7.802507 1.929271 7.960375 -4.902554 2.488487 8.870568 4.104251 -0.755684 -7.130424 -1.327813 3.912832 38.063436 -4.311820 3.620080 -5.471690 -27.304577 -10.480670 3.801449 -48.260242 -9.011634 -0.425212 -18.047051 -19.197734 1.488201 -3.871509 3.066206 0.087850 0.168320 -0.025340 0.080720 19.697236 14.174700 2.704011 47.931002 30.219495 4.481366 20.167361 56.641584 8.998562 2.118444 -1.649176 -0.072130 0.124780 -0.052560 -0.103500 
0.118930 16.937230 -4.422490 -2.824375 -5.196195 3.263486 -14.908871 12.944561 2.744225 8.123132 -1.823929 -23.264757 -2.864053 7.220548 26.263700 -0.285988 4.677349 2.779234 0.335750 0.282160 0.271870 18.387197 -11.513137 2.833801 -12.336674 1.224354 -13.027991 10.229223 -5.346278 10.539767 -0.135551 -3.720513 3.013019 0.282390 0.095140 0.131770 -4.066198 0.193531 -7.184258 7.894826 1.937619 8.469557 -5.030217 2.572925 8.783954 4.228549 -0.774491 -7.083705 -1.332128 4.042572 38.477804 -4.405380 3.735650 -6.032850 -27.566302 -10.480356 3.741350 -47.864436 -8.968018 -0.517836 -18.470483 -19.345661 1.551930 -3.857448 3.058616 0.106740 0.155360 -0.011430 0.076910 19.695145 14.257623 2.585346 47.167020 30.493373 4.488463 20.864205 57.296972 9.571931 2.111676 -1.645810 -0.074670 0.130990 -0.056660 -0.113070 
0.101370 16.922690 -4.438020 -2.981586 -5.820305 3.280813 -14.914156 12.949700 2.778439 8.396656 -1.814171 -23.807485 -2.720712 7.419322 27.260739 -0.272080 4.828341 2.711431 0.339770 0.286530 0.276160 18.381006 -11.487337 2.843840 -12.211799 1.301733 -13.219565 10.471128 -5.387646 10.700232 -0.138393 -3.709584 3.011548 0.283940 0.085130 0.129300 -4.041020 0.150020 -7.232721 7.855295 1.926511 8.904320 -5.048709 2.622445 8.723098 4.278414 -0.868478 -7.122066 -1.502439 4.277658 39.129379 -4.371570 3.850990 -6.145150 -27.643370 -10.615895 3.747299 -47.773820 -9.022857 -0.529880 -18.514707 -19.184018 1.522364 -3.849419 3.054484 0.117140 0.146510 -0.004170 0.073260 19.667648 14.530550 2.537929 46.641522 30.782779 4.459572 20.852924 57.293802 9.650851 2.110600 -1.636148 -0.074630 0.131170 -0.056020 -0.117130 
0.082050 16.910060 -4.454770 -3.106254 -6.528023 3.302218 -14.919290 12.970664 2.806593 8.568358 -1.810304 -24.244760 -2.429671 7.505476 28.031142 -0.263993 4.928902 2.664345 0.341980 0.284480 0.283740 18.372333 -11.460430 2.857029 -12.128959 1.393759 -13.496075 10.715225 -5.431404 10.902230 -0.138864 -3.692754 3.011210 0.281240 0.072930 0.126390 -4.011143 0.082027 -7.281097 7.809166 1.855648 9.343205 -5.102255 2.623155 8.688996 4.333953 -1.037087 -7.222187 -1.840879 4.539779 40.012268 -4.431040 3.955960 -6.127020 -27.625225 -10.803844 3.792548 -47.933483 -9.073624 -0.579981 -18.354420 -19.108773 1.466124 -3.839116 3.047644 0.129750 0.135980 0.003130 0.067830 19.531182 14.892394 2.539281 46.187360 31.045903 4.357726 20.709332 57.268101 9.641770 2.111651 -1.624312 -0.075530 0.129660 -0.055630 -0.123370 
0.059330 16.901230 -4.478110 -3.229141 -7.350553 3.324264 -14.922228 12.990304 2.845869 8.766539 -1.817731 -24.690705 -2.248416 7.624122 28.783291 -0.252857 5.036983 2.612972 0.349980 0.289280 0.295310 18.365446 -11.434054 2.866071 -11.980731 1.509144 -13.937611 10.920845 -5.487710 11.302012 -0.142203 -3.661165 3.012902 0.279920 0.056840 0.124020 -3.985103 0.012329 -7.335043 7.783068 1.756488 9.859073 -5.279470 2.623961 8.713368 4.400359 -1.211902 -7.367644 -2.224588 4.790586 41.207496 -4.346650 3.953410 -6.260350 -27.373720 -11.021953 3.808869 -48.293528 -9.357939 -0.564585 -18.043258 -19.009757 1.389164 -3.825058 3.035501 0.147460 0.119210 0.017680 0.063930 19.133220 15.250869 2.594061 46.071382 31.353489 4.283720 20.568511 57.152790 9.571199 2.115929 -1.607855 -0.073180 0.130770 -0.058160 -0.127910 
0.032580 16.893630 -4.500520 -3.296998 -8.139043 3.368427 -14.929271 13.034798 2.864407 8.752077 -1.838081 -24.964291 -1.767009 7.541095 29.243510 -0.255937 5.057633 2.595015 0.356910 0.294350 0.307070 18.353372 -11.406251 2.879483 -11.776948 1.620166 -14.406140 11.086803 -5.526540 11.663489 -0.143498 -3.621682 3.019086 0.279260 0.039660 0.120140 -3.945084 -0.093229 -7.372907 7.654752 1.619246 10.350858 -5.373886 2.571477 8.732286 4.429446 -1.466268 -7.483233 -2.787424 5.127316 42.371746 -4.434900 4.048060 -6.427550 -27.041177 -11.074022 3.777262 -48.753492 -9.619774 -0.602721 -17.808290 -19.224880 1.361905 -3.811841 3.022473 0.165020 0.103800 0.031660 0.058650 18.735132 15.468160 2.624355 45.994663 31.508792 4.149190 20.638543 57.157729 9.612513 2.120006 -1.593244 -0.072120 0.132550 -0.060010 -0.134180 
0.004690 16.889440 -4.523730 -3.365422 -8.967174 3.466696 -14.940314 13.080098 2.879868 8.699969 -1.868304 -25.256891 -1.203011 7.413164 29.673187 -0.266622 5.070341 2.581772 0.365120 0.301500 0.320640 18.338867 -11.370873 2.894080 -11.621132 1.778844 -15.027927 11.356066 -5.609135 12.203402 -0.146234 -3.593814 3.017826 0.282810 0.026210 0.117340 -3.895836 -0.207972 -7.403842 7.469934 1.499624 10.863911 -5.367263 2.522053 8.691259 4.436161 -1.693153 -7.500126 -3.293437 5.492757 43.240543 -4.555470 4.217690 -6.785870 -26.746026 -10.983631 3.659861 -49.172404 -9.975974 -0.569597 -17.779411 -19.366950 1.354443 -3.805196 3.006205 0.183740 0.091230 0.045770 0.054200 18.421840 15.513090 2.557658 45.800876 31.629523 4.008975 20.721158 57.090558 9.666267 2.121327 -1.576694 -0.074520 0.139600 -0.060910 -0.141480 
-0.023680 16.883850 -4.547720 -3.466333 -9.671364 3.660714 -14.954632 13.130527 2.897901 8.673333 -1.913355 -25.530060 -0.707461 7.243331 29.836740 -0.278021 5.044765 2.582324 0.372820 0.310020 0.331730 18.322436 -11.327571 2.906646 -11.334835 1.955578 -15.736021 11.530952 -5.674348 12.810425 -0.144419 -3.558505 3.021146 0.285980 0.014580 0.117480 -3.840140 -0.347350 -7.432771 7.279894 1.300372 11.364933 -5.311249 2.379047 8.578583 4.432819 -1.898293 -7.473142 -3.755684 5.903097 43.824552 -4.710990 4.492550 -7.040900 -26.626994 -10.890921 3.541424 -49.469319 -10.294691 -0.542261 -17.602510 -19.465502 1.328957 -3.801952 2.998326 0.194340 0.083810 0.056460 0.050100 18.302422 15.514038 2.441559 45.404821 31.636311 3.872433 21.203660 57.042514 9.939933 2.125388 -1.569265 -0.072760 0.140600 -0.062470 -0.146800 
-0.049780 16.881760 -4.571840 -3.538348 -10.413769 3.806150 -14.965536 13.185264 2.916729 8.582348 -1.958378 -25.730968 -0.232622 7.061215 29.945532 -0.290822 5.007874 2.586598 0.382120 0.320990 0.345300 18.307102 -11.295785 2.917803 -10.989170 2.116379 -16.361923 11.517802 -5.700560 13.387805 -0.144657 -3.511272 3.029220 0.289230 -0.000200 0.118350 -3.788467 -0.476340 -7.464391 7.138153 1.123249 11.966502 -5.291163 2.270921 8.417903 4.457765 -2.069417 -7.424870 -4.154576 6.258156 44.524403 -4.943410 4.768460 -7.411930 -26.745186 -10.789266 3.413239 -49.595928 -10.528008 -0.576161 -17.296953 -19.569102 1.283406 -3.795387 2.987354 0.208190 0.074160 0.071380 0.045570 18.356467 15.503479 2.293839 44.918052 31.594776 3.659315 21.374407 56.735556 10.020680 2.130209 -1.554235 -0.069950 0.142330 -0.064740 -0.152710 
-0.075420 16.879860 -4.592790 -3.565909 -11.177728 3.922974 -14.972125 13.241887 2.926060 8.415610 -1.995618 -25.827817 0.285012 6.851397 30.014888 -0.303778 4.956159 2.595595 0.394700 0.335350 0.362090 18.295010 -11.266095 2.935353 -10.699563 2.255262 -16.875701 11.511425 -5.700510 13.764217 -0.147784 -3.462841 3.038228 0.293590 -0.019440 0.118670 -3.747215 -0.600451 -7.493383 7.070836 0.946597 12.585721 -5.293943 2.163073 8.249920 4.470674 -2.265508 -7.374178 -4.600085 6.678722 45.224259 -5.171880 5.102920 -7.852340 -26.867132 -10.608002 3.285153 -49.618822 -10.602153 -0.694701 -17.330736 -19.829476 1.298726 -3.783758 2.981169 0.223560 0.061730 0.088530 0.040640 18.427722 15.417980 2.138140 44.412234 31.463882 3.377444 21.531543 56.598304 10.123213 2.134509 -1.541893 -0.065580 0.142180 -0.069260 -0.159930 
